%TF.GenerationSoftware,KiCad,Pcbnew,9.0.5*%
%TF.CreationDate,2026-02-14T17:06:09-06:00*%
%TF.ProjectId,Lab4,4c616234-2e6b-4696-9361-645f70636258,rev?*%
%TF.SameCoordinates,Original*%
%TF.FileFunction,Copper,L1,Top*%
%TF.FilePolarity,Positive*%
%FSLAX46Y46*%
G04 Gerber Fmt 4.6, Leading zero omitted, Abs format (unit mm)*
G04 Created by KiCad (PCBNEW 9.0.5) date 2026-02-14 17:06:09*
%MOMM*%
%LPD*%
G01*
G04 APERTURE LIST*
G04 Aperture macros list*
%AMRoundRect*
0 Rectangle with rounded corners*
0 $1 Rounding radius*
0 $2 $3 $4 $5 $6 $7 $8 $9 X,Y pos of 4 corners*
0 Add a 4 corners polygon primitive as box body*
4,1,4,$2,$3,$4,$5,$6,$7,$8,$9,$2,$3,0*
0 Add four circle primitives for the rounded corners*
1,1,$1+$1,$2,$3*
1,1,$1+$1,$4,$5*
1,1,$1+$1,$6,$7*
1,1,$1+$1,$8,$9*
0 Add four rect primitives between the rounded corners*
20,1,$1+$1,$2,$3,$4,$5,0*
20,1,$1+$1,$4,$5,$6,$7,0*
20,1,$1+$1,$6,$7,$8,$9,0*
20,1,$1+$1,$8,$9,$2,$3,0*%
G04 Aperture macros list end*
%TA.AperFunction,ComponentPad*%
%ADD10C,1.800000*%
%TD*%
%TA.AperFunction,ComponentPad*%
%ADD11RoundRect,0.450000X-0.450000X-0.450000X0.450000X-0.450000X0.450000X0.450000X-0.450000X0.450000X0*%
%TD*%
%TA.AperFunction,SMDPad,CuDef*%
%ADD12RoundRect,0.125000X-0.125000X0.537500X-0.125000X-0.537500X0.125000X-0.537500X0.125000X0.537500X0*%
%TD*%
%TA.AperFunction,SMDPad,CuDef*%
%ADD13RoundRect,0.250000X-0.412500X-0.650000X0.412500X-0.650000X0.412500X0.650000X-0.412500X0.650000X0*%
%TD*%
%TA.AperFunction,ComponentPad*%
%ADD14C,2.000000*%
%TD*%
%TA.AperFunction,SMDPad,CuDef*%
%ADD15RoundRect,0.250000X-0.525000X-0.250000X0.525000X-0.250000X0.525000X0.250000X-0.525000X0.250000X0*%
%TD*%
%TA.AperFunction,SMDPad,CuDef*%
%ADD16RoundRect,0.250000X-0.625000X0.400000X-0.625000X-0.400000X0.625000X-0.400000X0.625000X0.400000X0*%
%TD*%
%TA.AperFunction,SMDPad,CuDef*%
%ADD17RoundRect,0.250000X0.625000X-0.400000X0.625000X0.400000X-0.625000X0.400000X-0.625000X-0.400000X0*%
%TD*%
%TA.AperFunction,ComponentPad*%
%ADD18R,1.700000X1.700000*%
%TD*%
%TA.AperFunction,ComponentPad*%
%ADD19C,1.700000*%
%TD*%
%TA.AperFunction,SMDPad,CuDef*%
%ADD20R,1.500000X1.000000*%
%TD*%
%TA.AperFunction,ComponentPad*%
%ADD21C,3.000000*%
%TD*%
%TA.AperFunction,SMDPad,CuDef*%
%ADD22C,9.000000*%
%TD*%
%TA.AperFunction,ViaPad*%
%ADD23C,0.700000*%
%TD*%
%TA.AperFunction,Conductor*%
%ADD24C,0.250000*%
%TD*%
G04 APERTURE END LIST*
D10*
%TO.P,D3,4,DIN*%
%TO.N,LED_DIN*%
X148524000Y-102524000D03*
%TO.P,D3,3,VDD*%
%TO.N,VDD*%
X147000000Y-101000000D03*
%TO.P,D3,2,GND*%
%TO.N,GND*%
X145476000Y-102524000D03*
D11*
%TO.P,D3,1,DOUT*%
%TO.N,unconnected-(D3-DOUT-Pad1)*%
X143698000Y-101000000D03*
%TD*%
D12*
%TO.P,IC1,1,PA27_/_A0*%
%TO.N,THRM*%
X151975000Y-89362500D03*
%TO.P,IC1,2,PA1_/_NRST*%
%TO.N,NRST*%
X151325000Y-89362500D03*
%TO.P,IC1,3,VSS*%
%TO.N,GND*%
X150675000Y-89362500D03*
%TO.P,IC1,4,VDD*%
%TO.N,VDD*%
X150025000Y-89362500D03*
%TO.P,IC1,5,PA0*%
%TO.N,LED_DIN*%
X150025000Y-91637500D03*
%TO.P,IC1,6,PA19_/_SWDIO*%
%TO.N,SWDIO*%
X150675000Y-91637500D03*
%TO.P,IC1,7,PA20_/_A6_/_SWCLK*%
%TO.N,SWCLK*%
X151325000Y-91637500D03*
%TO.P,IC1,8,PA24_/_A3*%
%TO.N,Button*%
X151975000Y-91637500D03*
%TD*%
D13*
%TO.P,C2,1*%
%TO.N,VDD*%
X157875000Y-95000000D03*
%TO.P,C2,2*%
%TO.N,GND*%
X161000000Y-95000000D03*
%TD*%
D14*
%TO.P,SW1,1,A*%
%TO.N,Button*%
X137000000Y-106000000D03*
X137000000Y-112500000D03*
%TO.P,SW1,2,B*%
%TO.N,GND*%
X132500000Y-106000000D03*
X132500000Y-112500000D03*
%TD*%
D13*
%TO.P,C3,1*%
%TO.N,NRST*%
X157875000Y-100500000D03*
%TO.P,C3,2*%
%TO.N,GND*%
X161000000Y-100500000D03*
%TD*%
D15*
%TO.P,SW2,1,A*%
%TO.N,Button*%
X143250000Y-109000000D03*
X148500000Y-109000000D03*
%TO.P,SW2,2,B*%
%TO.N,GND*%
X143250000Y-112200000D03*
X148500000Y-112200000D03*
%TD*%
D16*
%TO.P,TH1,1*%
%TO.N,THRM*%
X159000000Y-109450000D03*
%TO.P,TH1,2*%
%TO.N,GND*%
X159000000Y-112550000D03*
%TD*%
D17*
%TO.P,R1,1*%
%TO.N,VDD*%
X154000000Y-105100000D03*
%TO.P,R1,2*%
%TO.N,NRST*%
X154000000Y-102000000D03*
%TD*%
D18*
%TO.P,J1,1,Pin_1*%
%TO.N,GND*%
X158080000Y-82500000D03*
D19*
%TO.P,J1,2,Pin_2*%
%TO.N,VDD*%
X155540000Y-82500000D03*
%TO.P,J1,3,Pin_3*%
%TO.N,NRST*%
X153000000Y-82500000D03*
%TO.P,J1,4,Pin_4*%
%TO.N,SWDIO*%
X150460000Y-82500000D03*
%TO.P,J1,5,Pin_5*%
%TO.N,SWCLK*%
X147920000Y-82500000D03*
%TD*%
D20*
%TO.P,D2,1,VSS*%
%TO.N,GND*%
X129550000Y-97900000D03*
%TO.P,D2,2,DIN*%
%TO.N,LED_DIN*%
X129550000Y-101100000D03*
%TO.P,D2,3,VDD*%
%TO.N,VDD*%
X134450000Y-101100000D03*
%TO.P,D2,4,DOUT*%
%TO.N,unconnected-(D2-DOUT-Pad4)*%
X134450000Y-97900000D03*
%TD*%
D21*
%TO.P,BT1,1,+*%
%TO.N,VDD*%
X131300000Y-88500000D03*
X144500000Y-88500000D03*
D22*
%TO.P,BT1,2,-*%
%TO.N,GND*%
X137900000Y-88500000D03*
%TD*%
D16*
%TO.P,R2,1*%
%TO.N,VDD*%
X159000000Y-103950000D03*
%TO.P,R2,2*%
%TO.N,THRM*%
X159000000Y-107050000D03*
%TD*%
D13*
%TO.P,C1,1*%
%TO.N,VDD*%
X157500000Y-90000000D03*
%TO.P,C1,2*%
%TO.N,GND*%
X160625000Y-90000000D03*
%TD*%
D23*
%TO.N,GND*%
X150500000Y-111000000D03*
X147000000Y-103000000D03*
%TO.N,SWDIO*%
X150750000Y-93500000D03*
%TO.N,VDD*%
X155500000Y-89000000D03*
X148960627Y-88012653D03*
X149156661Y-88843339D03*
X147500000Y-90000000D03*
%TO.N,GND*%
X133500000Y-93500000D03*
X130500000Y-96500000D03*
%TO.N,VDD*%
X150000000Y-102000000D03*
X152700000Y-104000000D03*
%TO.N,THRM*%
X157000000Y-107000000D03*
X156500000Y-93000000D03*
%TO.N,SWDIO*%
X150500000Y-87500000D03*
%TD*%
D24*
%TO.N,GND*%
X145476000Y-102524000D02*
X146524000Y-102524000D01*
X149700000Y-111000000D02*
X148500000Y-112200000D01*
X146524000Y-102524000D02*
X147000000Y-103000000D01*
X150500000Y-111000000D02*
X149700000Y-111000000D01*
%TO.N,Button*%
X151975000Y-91637500D02*
X151975000Y-105525000D01*
X151975000Y-105525000D02*
X148500000Y-109000000D01*
%TO.N,GND*%
X143250000Y-112200000D02*
X148500000Y-112200000D01*
%TO.N,Button*%
X143250000Y-109000000D02*
X140000000Y-109000000D01*
X148500000Y-109000000D02*
X143250000Y-109000000D01*
%TO.N,THRM*%
X159000000Y-107050000D02*
X159000000Y-109500000D01*
%TO.N,LED_DIN*%
X129550000Y-101100000D02*
X132150000Y-103700000D01*
X147348000Y-103700000D02*
X148524000Y-102524000D01*
X132150000Y-103700000D02*
X147348000Y-103700000D01*
%TO.N,VDD*%
X147500000Y-90000000D02*
X146000000Y-88500000D01*
X146000000Y-88500000D02*
X144500000Y-88500000D01*
X131300000Y-88500000D02*
X130000000Y-89800000D01*
X130000000Y-89800000D02*
X130000000Y-91448000D01*
X135826000Y-97274000D02*
X135826000Y-99724000D01*
X130000000Y-91448000D02*
X135826000Y-97274000D01*
%TO.N,SWDIO*%
X150750000Y-93500000D02*
X150675000Y-93425000D01*
X150675000Y-93425000D02*
X150675000Y-91637500D01*
%TO.N,VDD*%
X148960627Y-88012653D02*
X150025000Y-89077026D01*
X150025000Y-89077026D02*
X150025000Y-89362500D01*
%TO.N,LED_DIN*%
X150025000Y-91637500D02*
X150025000Y-100998280D01*
X150025000Y-100998280D02*
X150726000Y-101699280D01*
X150726000Y-101699280D02*
X150726000Y-102300720D01*
X150726000Y-102300720D02*
X150026720Y-103000000D01*
X150026720Y-103000000D02*
X149000000Y-103000000D01*
X149000000Y-103000000D02*
X148524000Y-102524000D01*
%TO.N,VDD*%
X156500000Y-89000000D02*
X157500000Y-90000000D01*
X155500000Y-89000000D02*
X156500000Y-89000000D01*
%TO.N,GND*%
X158080000Y-82500000D02*
X156854000Y-81274000D01*
X149234000Y-81992174D02*
X149234000Y-87260720D01*
X156854000Y-81274000D02*
X149952174Y-81274000D01*
X149952174Y-81274000D02*
X149234000Y-81992174D01*
X149234000Y-87260720D02*
X150325000Y-88351720D01*
X150325000Y-88351720D02*
X150675000Y-88351720D01*
X150675000Y-88351720D02*
X150675000Y-89362500D01*
%TO.N,VDD*%
X149156661Y-88843339D02*
X149505839Y-88843339D01*
X149505839Y-88843339D02*
X150025000Y-89362500D01*
%TO.N,GND*%
X130500000Y-96500000D02*
X130500000Y-96950000D01*
X130500000Y-96950000D02*
X129550000Y-97900000D01*
X135500000Y-91500000D02*
X133500000Y-93500000D01*
X135500000Y-88500000D02*
X135500000Y-91500000D01*
X129550000Y-97900000D02*
X128424000Y-99026000D01*
X128424000Y-99026000D02*
X128424000Y-101924000D01*
X128424000Y-101924000D02*
X132500000Y-106000000D01*
%TO.N,VDD*%
X147000000Y-101000000D02*
X145724000Y-99724000D01*
X145724000Y-99724000D02*
X135826000Y-99724000D01*
X135826000Y-99724000D02*
X134450000Y-101100000D01*
X154000000Y-105100000D02*
X153800000Y-105100000D01*
X153800000Y-105100000D02*
X152700000Y-104000000D01*
X149000000Y-101000000D02*
X147000000Y-101000000D01*
X150000000Y-102000000D02*
X149000000Y-101000000D01*
X154000000Y-105100000D02*
X157850000Y-105100000D01*
X157850000Y-105100000D02*
X159000000Y-103950000D01*
%TO.N,NRST*%
X154000000Y-102000000D02*
X156375000Y-102000000D01*
X156375000Y-102000000D02*
X157875000Y-100500000D01*
X151325000Y-89362500D02*
X151325000Y-90086984D01*
X154000000Y-92288016D02*
X154000000Y-102000000D01*
X151325000Y-90086984D02*
X151837016Y-90599000D01*
X151837016Y-90599000D02*
X152310984Y-90599000D01*
X152310984Y-90599000D02*
X154000000Y-92288016D01*
%TO.N,THRM*%
X151975000Y-89362500D02*
X155612500Y-93000000D01*
X155612500Y-93000000D02*
X156500000Y-93000000D01*
X157000000Y-107000000D02*
X158950000Y-107000000D01*
X158950000Y-107000000D02*
X159000000Y-107050000D01*
%TO.N,GND*%
X161000000Y-100500000D02*
X161000000Y-110600000D01*
X161000000Y-110600000D02*
X159000000Y-112600000D01*
%TO.N,VDD*%
X157875000Y-95000000D02*
X159000000Y-96125000D01*
X159000000Y-96125000D02*
X159000000Y-103950000D01*
X157875000Y-95000000D02*
X157875000Y-90375000D01*
X157875000Y-90375000D02*
X157500000Y-90000000D01*
%TO.N,GND*%
X161000000Y-95000000D02*
X161000000Y-100500000D01*
X160625000Y-90000000D02*
X160625000Y-90375000D01*
X160625000Y-90375000D02*
X161000000Y-90750000D01*
X161000000Y-90750000D02*
X161000000Y-95000000D01*
X158080000Y-82500000D02*
X158080000Y-83080000D01*
X160625000Y-85625000D02*
X160625000Y-90000000D01*
X158080000Y-83080000D02*
X160625000Y-85625000D01*
%TO.N,VDD*%
X155540000Y-82500000D02*
X157500000Y-84460000D01*
X157500000Y-84460000D02*
X157500000Y-90000000D01*
%TO.N,SWDIO*%
X150460000Y-87460000D02*
X150500000Y-87500000D01*
X150460000Y-82500000D02*
X150460000Y-87460000D01*
X150675000Y-91637500D02*
X150651000Y-91613500D01*
X150651000Y-91613500D02*
X150651000Y-91100000D01*
%TO.N,SWCLK*%
X147920000Y-82500000D02*
X147920000Y-88631984D01*
X151010984Y-90599000D02*
X151325000Y-90913016D01*
X147920000Y-88631984D02*
X149887016Y-90599000D01*
X149887016Y-90599000D02*
X151010984Y-90599000D01*
X151325000Y-90913016D02*
X151325000Y-91637500D01*
%TO.N,NRST*%
X153000000Y-82500000D02*
X151325000Y-84175000D01*
X151325000Y-84175000D02*
X151325000Y-89362500D01*
%TO.N,GND*%
X132500000Y-112500000D02*
X132500000Y-106000000D01*
%TO.N,Button*%
X137000000Y-106000000D02*
X140000000Y-109000000D01*
X140000000Y-109000000D02*
X140000000Y-110000000D01*
X137000000Y-112500000D02*
X137500000Y-112500000D01*
X137500000Y-112500000D02*
X140000000Y-110000000D01*
%TO.N,GND*%
X159000000Y-112600000D02*
X149100000Y-112600000D01*
%TO.N,LED_DIN*%
X147901280Y-102524000D02*
X148524000Y-102524000D01*
%TD*%
M02*
