%TF.GenerationSoftware,KiCad,Pcbnew,9.0.5*%
%TF.CreationDate,2026-02-14T17:06:09-06:00*%
%TF.ProjectId,Lab4,4c616234-2e6b-4696-9361-645f70636258,rev?*%
%TF.SameCoordinates,Original*%
%TF.FileFunction,Legend,Top*%
%TF.FilePolarity,Positive*%
%FSLAX46Y46*%
G04 Gerber Fmt 4.6, Leading zero omitted, Abs format (unit mm)*
G04 Created by KiCad (PCBNEW 9.0.5) date 2026-02-14 17:06:09*
%MOMM*%
%LPD*%
G01*
G04 APERTURE LIST*
%ADD10C,0.150000*%
%ADD11C,0.120000*%
G04 APERTURE END LIST*
D10*
X145372905Y-98374324D02*
X145372905Y-97120324D01*
X145372905Y-97120324D02*
X145611000Y-97120324D01*
X145611000Y-97120324D02*
X145753857Y-97180038D01*
X145753857Y-97180038D02*
X145849095Y-97299467D01*
X145849095Y-97299467D02*
X145896714Y-97418895D01*
X145896714Y-97418895D02*
X145944333Y-97657752D01*
X145944333Y-97657752D02*
X145944333Y-97836895D01*
X145944333Y-97836895D02*
X145896714Y-98075752D01*
X145896714Y-98075752D02*
X145849095Y-98195181D01*
X145849095Y-98195181D02*
X145753857Y-98314610D01*
X145753857Y-98314610D02*
X145611000Y-98374324D01*
X145611000Y-98374324D02*
X145372905Y-98374324D01*
X146277667Y-97120324D02*
X146896714Y-97120324D01*
X146896714Y-97120324D02*
X146563381Y-97598038D01*
X146563381Y-97598038D02*
X146706238Y-97598038D01*
X146706238Y-97598038D02*
X146801476Y-97657752D01*
X146801476Y-97657752D02*
X146849095Y-97717467D01*
X146849095Y-97717467D02*
X146896714Y-97836895D01*
X146896714Y-97836895D02*
X146896714Y-98135467D01*
X146896714Y-98135467D02*
X146849095Y-98254895D01*
X146849095Y-98254895D02*
X146801476Y-98314610D01*
X146801476Y-98314610D02*
X146706238Y-98374324D01*
X146706238Y-98374324D02*
X146420524Y-98374324D01*
X146420524Y-98374324D02*
X146325286Y-98314610D01*
X146325286Y-98314610D02*
X146277667Y-98254895D01*
X153854819Y-91476189D02*
X152854819Y-91476189D01*
X153759580Y-90428571D02*
X153807200Y-90476190D01*
X153807200Y-90476190D02*
X153854819Y-90619047D01*
X153854819Y-90619047D02*
X153854819Y-90714285D01*
X153854819Y-90714285D02*
X153807200Y-90857142D01*
X153807200Y-90857142D02*
X153711961Y-90952380D01*
X153711961Y-90952380D02*
X153616723Y-90999999D01*
X153616723Y-90999999D02*
X153426247Y-91047618D01*
X153426247Y-91047618D02*
X153283390Y-91047618D01*
X153283390Y-91047618D02*
X153092914Y-90999999D01*
X153092914Y-90999999D02*
X152997676Y-90952380D01*
X152997676Y-90952380D02*
X152902438Y-90857142D01*
X152902438Y-90857142D02*
X152854819Y-90714285D01*
X152854819Y-90714285D02*
X152854819Y-90619047D01*
X152854819Y-90619047D02*
X152902438Y-90476190D01*
X152902438Y-90476190D02*
X152950057Y-90428571D01*
X153854819Y-89476190D02*
X153854819Y-90047618D01*
X153854819Y-89761904D02*
X152854819Y-89761904D01*
X152854819Y-89761904D02*
X152997676Y-89857142D01*
X152997676Y-89857142D02*
X153092914Y-89952380D01*
X153092914Y-89952380D02*
X153140533Y-90047618D01*
X159270833Y-93509580D02*
X159223214Y-93557200D01*
X159223214Y-93557200D02*
X159080357Y-93604819D01*
X159080357Y-93604819D02*
X158985119Y-93604819D01*
X158985119Y-93604819D02*
X158842262Y-93557200D01*
X158842262Y-93557200D02*
X158747024Y-93461961D01*
X158747024Y-93461961D02*
X158699405Y-93366723D01*
X158699405Y-93366723D02*
X158651786Y-93176247D01*
X158651786Y-93176247D02*
X158651786Y-93033390D01*
X158651786Y-93033390D02*
X158699405Y-92842914D01*
X158699405Y-92842914D02*
X158747024Y-92747676D01*
X158747024Y-92747676D02*
X158842262Y-92652438D01*
X158842262Y-92652438D02*
X158985119Y-92604819D01*
X158985119Y-92604819D02*
X159080357Y-92604819D01*
X159080357Y-92604819D02*
X159223214Y-92652438D01*
X159223214Y-92652438D02*
X159270833Y-92700057D01*
X159651786Y-92700057D02*
X159699405Y-92652438D01*
X159699405Y-92652438D02*
X159794643Y-92604819D01*
X159794643Y-92604819D02*
X160032738Y-92604819D01*
X160032738Y-92604819D02*
X160127976Y-92652438D01*
X160127976Y-92652438D02*
X160175595Y-92700057D01*
X160175595Y-92700057D02*
X160223214Y-92795295D01*
X160223214Y-92795295D02*
X160223214Y-92890533D01*
X160223214Y-92890533D02*
X160175595Y-93033390D01*
X160175595Y-93033390D02*
X159604167Y-93604819D01*
X159604167Y-93604819D02*
X160223214Y-93604819D01*
X139407200Y-110583332D02*
X139454819Y-110440475D01*
X139454819Y-110440475D02*
X139454819Y-110202380D01*
X139454819Y-110202380D02*
X139407200Y-110107142D01*
X139407200Y-110107142D02*
X139359580Y-110059523D01*
X139359580Y-110059523D02*
X139264342Y-110011904D01*
X139264342Y-110011904D02*
X139169104Y-110011904D01*
X139169104Y-110011904D02*
X139073866Y-110059523D01*
X139073866Y-110059523D02*
X139026247Y-110107142D01*
X139026247Y-110107142D02*
X138978628Y-110202380D01*
X138978628Y-110202380D02*
X138931009Y-110392856D01*
X138931009Y-110392856D02*
X138883390Y-110488094D01*
X138883390Y-110488094D02*
X138835771Y-110535713D01*
X138835771Y-110535713D02*
X138740533Y-110583332D01*
X138740533Y-110583332D02*
X138645295Y-110583332D01*
X138645295Y-110583332D02*
X138550057Y-110535713D01*
X138550057Y-110535713D02*
X138502438Y-110488094D01*
X138502438Y-110488094D02*
X138454819Y-110392856D01*
X138454819Y-110392856D02*
X138454819Y-110154761D01*
X138454819Y-110154761D02*
X138502438Y-110011904D01*
X138454819Y-109678570D02*
X139454819Y-109440475D01*
X139454819Y-109440475D02*
X138740533Y-109249999D01*
X138740533Y-109249999D02*
X139454819Y-109059523D01*
X139454819Y-109059523D02*
X138454819Y-108821428D01*
X139454819Y-107916666D02*
X139454819Y-108488094D01*
X139454819Y-108202380D02*
X138454819Y-108202380D01*
X138454819Y-108202380D02*
X138597676Y-108297618D01*
X138597676Y-108297618D02*
X138692914Y-108392856D01*
X138692914Y-108392856D02*
X138740533Y-108488094D01*
X159270833Y-99009580D02*
X159223214Y-99057200D01*
X159223214Y-99057200D02*
X159080357Y-99104819D01*
X159080357Y-99104819D02*
X158985119Y-99104819D01*
X158985119Y-99104819D02*
X158842262Y-99057200D01*
X158842262Y-99057200D02*
X158747024Y-98961961D01*
X158747024Y-98961961D02*
X158699405Y-98866723D01*
X158699405Y-98866723D02*
X158651786Y-98676247D01*
X158651786Y-98676247D02*
X158651786Y-98533390D01*
X158651786Y-98533390D02*
X158699405Y-98342914D01*
X158699405Y-98342914D02*
X158747024Y-98247676D01*
X158747024Y-98247676D02*
X158842262Y-98152438D01*
X158842262Y-98152438D02*
X158985119Y-98104819D01*
X158985119Y-98104819D02*
X159080357Y-98104819D01*
X159080357Y-98104819D02*
X159223214Y-98152438D01*
X159223214Y-98152438D02*
X159270833Y-98200057D01*
X159604167Y-98104819D02*
X160223214Y-98104819D01*
X160223214Y-98104819D02*
X159889881Y-98485771D01*
X159889881Y-98485771D02*
X160032738Y-98485771D01*
X160032738Y-98485771D02*
X160127976Y-98533390D01*
X160127976Y-98533390D02*
X160175595Y-98581009D01*
X160175595Y-98581009D02*
X160223214Y-98676247D01*
X160223214Y-98676247D02*
X160223214Y-98914342D01*
X160223214Y-98914342D02*
X160175595Y-99009580D01*
X160175595Y-99009580D02*
X160127976Y-99057200D01*
X160127976Y-99057200D02*
X160032738Y-99104819D01*
X160032738Y-99104819D02*
X159747024Y-99104819D01*
X159747024Y-99104819D02*
X159651786Y-99057200D01*
X159651786Y-99057200D02*
X159604167Y-99009580D01*
X144541667Y-106957200D02*
X144684524Y-107004819D01*
X144684524Y-107004819D02*
X144922619Y-107004819D01*
X144922619Y-107004819D02*
X145017857Y-106957200D01*
X145017857Y-106957200D02*
X145065476Y-106909580D01*
X145065476Y-106909580D02*
X145113095Y-106814342D01*
X145113095Y-106814342D02*
X145113095Y-106719104D01*
X145113095Y-106719104D02*
X145065476Y-106623866D01*
X145065476Y-106623866D02*
X145017857Y-106576247D01*
X145017857Y-106576247D02*
X144922619Y-106528628D01*
X144922619Y-106528628D02*
X144732143Y-106481009D01*
X144732143Y-106481009D02*
X144636905Y-106433390D01*
X144636905Y-106433390D02*
X144589286Y-106385771D01*
X144589286Y-106385771D02*
X144541667Y-106290533D01*
X144541667Y-106290533D02*
X144541667Y-106195295D01*
X144541667Y-106195295D02*
X144589286Y-106100057D01*
X144589286Y-106100057D02*
X144636905Y-106052438D01*
X144636905Y-106052438D02*
X144732143Y-106004819D01*
X144732143Y-106004819D02*
X144970238Y-106004819D01*
X144970238Y-106004819D02*
X145113095Y-106052438D01*
X145446429Y-106004819D02*
X145684524Y-107004819D01*
X145684524Y-107004819D02*
X145875000Y-106290533D01*
X145875000Y-106290533D02*
X146065476Y-107004819D01*
X146065476Y-107004819D02*
X146303572Y-106004819D01*
X146636905Y-106100057D02*
X146684524Y-106052438D01*
X146684524Y-106052438D02*
X146779762Y-106004819D01*
X146779762Y-106004819D02*
X147017857Y-106004819D01*
X147017857Y-106004819D02*
X147113095Y-106052438D01*
X147113095Y-106052438D02*
X147160714Y-106100057D01*
X147160714Y-106100057D02*
X147208333Y-106195295D01*
X147208333Y-106195295D02*
X147208333Y-106290533D01*
X147208333Y-106290533D02*
X147160714Y-106433390D01*
X147160714Y-106433390D02*
X146589286Y-107004819D01*
X146589286Y-107004819D02*
X147208333Y-107004819D01*
X160284819Y-112285713D02*
X160284819Y-111714285D01*
X161284819Y-111999999D02*
X160284819Y-111999999D01*
X161284819Y-111380951D02*
X160284819Y-111380951D01*
X160761009Y-111380951D02*
X160761009Y-110809523D01*
X161284819Y-110809523D02*
X160284819Y-110809523D01*
X161284819Y-109809523D02*
X161284819Y-110380951D01*
X161284819Y-110095237D02*
X160284819Y-110095237D01*
X160284819Y-110095237D02*
X160427676Y-110190475D01*
X160427676Y-110190475D02*
X160522914Y-110285713D01*
X160522914Y-110285713D02*
X160570533Y-110380951D01*
X152624819Y-103716666D02*
X152148628Y-104049999D01*
X152624819Y-104288094D02*
X151624819Y-104288094D01*
X151624819Y-104288094D02*
X151624819Y-103907142D01*
X151624819Y-103907142D02*
X151672438Y-103811904D01*
X151672438Y-103811904D02*
X151720057Y-103764285D01*
X151720057Y-103764285D02*
X151815295Y-103716666D01*
X151815295Y-103716666D02*
X151958152Y-103716666D01*
X151958152Y-103716666D02*
X152053390Y-103764285D01*
X152053390Y-103764285D02*
X152101009Y-103811904D01*
X152101009Y-103811904D02*
X152148628Y-103907142D01*
X152148628Y-103907142D02*
X152148628Y-104288094D01*
X152624819Y-102764285D02*
X152624819Y-103335713D01*
X152624819Y-103049999D02*
X151624819Y-103049999D01*
X151624819Y-103049999D02*
X151767676Y-103145237D01*
X151767676Y-103145237D02*
X151862914Y-103240475D01*
X151862914Y-103240475D02*
X151910533Y-103335713D01*
X159914819Y-82833333D02*
X160629104Y-82833333D01*
X160629104Y-82833333D02*
X160771961Y-82880952D01*
X160771961Y-82880952D02*
X160867200Y-82976190D01*
X160867200Y-82976190D02*
X160914819Y-83119047D01*
X160914819Y-83119047D02*
X160914819Y-83214285D01*
X160914819Y-81833333D02*
X160914819Y-82404761D01*
X160914819Y-82119047D02*
X159914819Y-82119047D01*
X159914819Y-82119047D02*
X160057676Y-82214285D01*
X160057676Y-82214285D02*
X160152914Y-82309523D01*
X160152914Y-82309523D02*
X160200533Y-82404761D01*
X131261905Y-96454819D02*
X131261905Y-95454819D01*
X131261905Y-95454819D02*
X131500000Y-95454819D01*
X131500000Y-95454819D02*
X131642857Y-95502438D01*
X131642857Y-95502438D02*
X131738095Y-95597676D01*
X131738095Y-95597676D02*
X131785714Y-95692914D01*
X131785714Y-95692914D02*
X131833333Y-95883390D01*
X131833333Y-95883390D02*
X131833333Y-96026247D01*
X131833333Y-96026247D02*
X131785714Y-96216723D01*
X131785714Y-96216723D02*
X131738095Y-96311961D01*
X131738095Y-96311961D02*
X131642857Y-96407200D01*
X131642857Y-96407200D02*
X131500000Y-96454819D01*
X131500000Y-96454819D02*
X131261905Y-96454819D01*
X132214286Y-95550057D02*
X132261905Y-95502438D01*
X132261905Y-95502438D02*
X132357143Y-95454819D01*
X132357143Y-95454819D02*
X132595238Y-95454819D01*
X132595238Y-95454819D02*
X132690476Y-95502438D01*
X132690476Y-95502438D02*
X132738095Y-95550057D01*
X132738095Y-95550057D02*
X132785714Y-95645295D01*
X132785714Y-95645295D02*
X132785714Y-95740533D01*
X132785714Y-95740533D02*
X132738095Y-95883390D01*
X132738095Y-95883390D02*
X132166667Y-96454819D01*
X132166667Y-96454819D02*
X132785714Y-96454819D01*
X137114285Y-80431009D02*
X137257142Y-80478628D01*
X137257142Y-80478628D02*
X137304761Y-80526247D01*
X137304761Y-80526247D02*
X137352380Y-80621485D01*
X137352380Y-80621485D02*
X137352380Y-80764342D01*
X137352380Y-80764342D02*
X137304761Y-80859580D01*
X137304761Y-80859580D02*
X137257142Y-80907200D01*
X137257142Y-80907200D02*
X137161904Y-80954819D01*
X137161904Y-80954819D02*
X136780952Y-80954819D01*
X136780952Y-80954819D02*
X136780952Y-79954819D01*
X136780952Y-79954819D02*
X137114285Y-79954819D01*
X137114285Y-79954819D02*
X137209523Y-80002438D01*
X137209523Y-80002438D02*
X137257142Y-80050057D01*
X137257142Y-80050057D02*
X137304761Y-80145295D01*
X137304761Y-80145295D02*
X137304761Y-80240533D01*
X137304761Y-80240533D02*
X137257142Y-80335771D01*
X137257142Y-80335771D02*
X137209523Y-80383390D01*
X137209523Y-80383390D02*
X137114285Y-80431009D01*
X137114285Y-80431009D02*
X136780952Y-80431009D01*
X137638095Y-79954819D02*
X138209523Y-79954819D01*
X137923809Y-80954819D02*
X137923809Y-79954819D01*
X139066666Y-80954819D02*
X138495238Y-80954819D01*
X138780952Y-80954819D02*
X138780952Y-79954819D01*
X138780952Y-79954819D02*
X138685714Y-80097676D01*
X138685714Y-80097676D02*
X138590476Y-80192914D01*
X138590476Y-80192914D02*
X138495238Y-80240533D01*
X161284819Y-105666666D02*
X160808628Y-105999999D01*
X161284819Y-106238094D02*
X160284819Y-106238094D01*
X160284819Y-106238094D02*
X160284819Y-105857142D01*
X160284819Y-105857142D02*
X160332438Y-105761904D01*
X160332438Y-105761904D02*
X160380057Y-105714285D01*
X160380057Y-105714285D02*
X160475295Y-105666666D01*
X160475295Y-105666666D02*
X160618152Y-105666666D01*
X160618152Y-105666666D02*
X160713390Y-105714285D01*
X160713390Y-105714285D02*
X160761009Y-105761904D01*
X160761009Y-105761904D02*
X160808628Y-105857142D01*
X160808628Y-105857142D02*
X160808628Y-106238094D01*
X160380057Y-105285713D02*
X160332438Y-105238094D01*
X160332438Y-105238094D02*
X160284819Y-105142856D01*
X160284819Y-105142856D02*
X160284819Y-104904761D01*
X160284819Y-104904761D02*
X160332438Y-104809523D01*
X160332438Y-104809523D02*
X160380057Y-104761904D01*
X160380057Y-104761904D02*
X160475295Y-104714285D01*
X160475295Y-104714285D02*
X160570533Y-104714285D01*
X160570533Y-104714285D02*
X160713390Y-104761904D01*
X160713390Y-104761904D02*
X161284819Y-105333332D01*
X161284819Y-105333332D02*
X161284819Y-104714285D01*
X158895833Y-88509580D02*
X158848214Y-88557200D01*
X158848214Y-88557200D02*
X158705357Y-88604819D01*
X158705357Y-88604819D02*
X158610119Y-88604819D01*
X158610119Y-88604819D02*
X158467262Y-88557200D01*
X158467262Y-88557200D02*
X158372024Y-88461961D01*
X158372024Y-88461961D02*
X158324405Y-88366723D01*
X158324405Y-88366723D02*
X158276786Y-88176247D01*
X158276786Y-88176247D02*
X158276786Y-88033390D01*
X158276786Y-88033390D02*
X158324405Y-87842914D01*
X158324405Y-87842914D02*
X158372024Y-87747676D01*
X158372024Y-87747676D02*
X158467262Y-87652438D01*
X158467262Y-87652438D02*
X158610119Y-87604819D01*
X158610119Y-87604819D02*
X158705357Y-87604819D01*
X158705357Y-87604819D02*
X158848214Y-87652438D01*
X158848214Y-87652438D02*
X158895833Y-87700057D01*
X159848214Y-88604819D02*
X159276786Y-88604819D01*
X159562500Y-88604819D02*
X159562500Y-87604819D01*
X159562500Y-87604819D02*
X159467262Y-87747676D01*
X159467262Y-87747676D02*
X159372024Y-87842914D01*
X159372024Y-87842914D02*
X159276786Y-87890533D01*
D11*
%TO.C,D3*%
X148502334Y-103556887D02*
G75*
G02*
X143551000Y-103306830I-2391334J1794887D01*
G01*
X148070086Y-103315056D02*
G75*
G02*
X143856316Y-102842000I-1959086J1553056D01*
G01*
X144358401Y-99984001D02*
G75*
G02*
X148591090Y-101475579I1752599J-1777999D01*
G01*
X143726000Y-99962000D02*
G75*
G02*
X149087835Y-101503784I2385000J-1800000D01*
G01*
X143551000Y-102061188D02*
X143551000Y-103307000D01*
%TO.C,IC1*%
X152560000Y-89590000D02*
X152560000Y-91410000D01*
X152485000Y-89590000D02*
X152560000Y-89590000D01*
X149440000Y-89590000D02*
X149515000Y-89590000D01*
X152560000Y-91410000D02*
X152485000Y-91410000D01*
X149515000Y-91410000D02*
X149440000Y-91410000D01*
X149440000Y-91410000D02*
X149440000Y-89590000D01*
X152820000Y-89290000D02*
X152490000Y-89050000D01*
X152820000Y-88810000D01*
X152820000Y-89290000D01*
G36*
X152820000Y-89290000D02*
G01*
X152490000Y-89050000D01*
X152820000Y-88810000D01*
X152820000Y-89290000D01*
G37*
%TO.C,C2*%
X158726248Y-94090000D02*
X160148752Y-94090000D01*
X158726248Y-95910000D02*
X160148752Y-95910000D01*
%TO.C,SW1*%
X135500000Y-105750000D02*
X134000000Y-105750000D01*
X131500000Y-107000000D02*
X131500000Y-111500000D01*
X138000000Y-111500000D02*
X138000000Y-107000000D01*
X134000000Y-112750000D02*
X135500000Y-112750000D01*
%TO.C,C3*%
X158726248Y-99590000D02*
X160148752Y-99590000D01*
X158726248Y-101410000D02*
X160148752Y-101410000D01*
%TO.C,SW2*%
X143425000Y-108150000D02*
X143425000Y-108200000D01*
X143425000Y-108150000D02*
X148325000Y-108150000D01*
X143425000Y-109850000D02*
X143425000Y-111350000D01*
X143425000Y-113050000D02*
X143425000Y-113000000D01*
X143425000Y-113050000D02*
X148325000Y-113050000D01*
X148325000Y-108150000D02*
X148325000Y-108200000D01*
X148325000Y-109850000D02*
X148325000Y-111350000D01*
X148325000Y-113050000D02*
X148325000Y-113000000D01*
%TO.C,TH1*%
X159910000Y-110272936D02*
X159910000Y-111727064D01*
X158090000Y-110272936D02*
X158090000Y-111727064D01*
%TO.C,R1*%
X153090000Y-104277064D02*
X153090000Y-102822936D01*
X154910000Y-104277064D02*
X154910000Y-102822936D01*
%TO.C,J1*%
X159460000Y-81120000D02*
X159460000Y-82500000D01*
X158080000Y-81120000D02*
X159460000Y-81120000D01*
X156810000Y-81120000D02*
X146540000Y-81120000D01*
X156810000Y-81120000D02*
X156810000Y-83880000D01*
X146540000Y-81120000D02*
X146540000Y-83880000D01*
X156810000Y-83880000D02*
X146540000Y-83880000D01*
%TO.C,D2*%
X128500000Y-97200000D02*
X128500000Y-102250000D01*
X128950000Y-96750000D02*
X128500000Y-97200000D01*
X129300000Y-98600000D02*
X129300000Y-100400000D01*
X134700000Y-98600000D02*
X134700000Y-100400000D01*
X135500000Y-96750000D02*
X128950000Y-96750000D01*
X135500000Y-102250000D02*
X128500000Y-102250000D01*
X135500000Y-102250000D02*
X135500000Y-96750000D01*
%TO.C,BT1*%
X131150000Y-85050000D02*
X133750000Y-82450000D01*
X131150000Y-86700000D02*
X131150000Y-85050000D01*
X131150000Y-90300000D02*
X131150000Y-92600000D01*
X133750000Y-81650000D02*
X142050000Y-81650000D01*
X133750000Y-82450000D02*
X133750000Y-81650000D01*
X142050000Y-81650000D02*
X142050000Y-82450000D01*
X142050000Y-82450000D02*
X144650000Y-85050000D01*
X144650000Y-85050000D02*
X144650000Y-86700000D01*
X144650000Y-90300000D02*
X144650000Y-92600000D01*
X132600000Y-94100000D02*
G75*
G02*
X131150001Y-92600000I49974J1499141D01*
G01*
X133400000Y-93700000D02*
G75*
G02*
X132485385Y-94084160I-790000J600001D01*
G01*
X143200000Y-94100000D02*
G75*
G02*
X142400000Y-93700000I6100J1012200D01*
G01*
X144650000Y-92600000D02*
G75*
G02*
X143200000Y-94099998I-1499970J-860D01*
G01*
%TO.C,R2*%
X159910000Y-104772936D02*
X159910000Y-106227064D01*
X158090000Y-104772936D02*
X158090000Y-106227064D01*
%TO.C,C1*%
X158351248Y-89090000D02*
X159773752Y-89090000D01*
X158351248Y-90910000D02*
X159773752Y-90910000D01*
%TD*%
M02*
